# Blender 5.2.0 LTS
# www.blender.org
mtllib drone.mtl
o DroneHull
v -0.383025 -0.170000 2.270057
v -0.302970 -0.250000 2.270000
v -0.300000 -0.170000 2.350000
v -0.359566 -0.226569 2.270029
v -0.347455 -0.216188 2.316200
v -0.300858 -0.226569 2.326557
v -0.357466 -0.170000 2.326597
v 0.383025 -0.170000 2.270057
v 0.300000 -0.170000 2.350000
v 0.302970 -0.250000 2.270000
v 0.357466 -0.170000 2.326597
v 0.347455 -0.216188 2.316200
v 0.300858 -0.226569 2.326557
v 0.359566 -0.226569 2.270029
v 0.520000 -0.170000 -1.350000
v 0.439489 -0.250000 -1.338001
v 0.496419 -0.226569 -1.346486
v -0.026203 -0.170000 -2.774413
v 0.026203 -0.170000 -2.774413
v 0.000000 -0.250000 -2.605757
v 0.000000 -0.170000 -2.805722
v 0.000000 -0.216189 -2.758188
v 0.028756 -0.226569 -2.695512
v -0.028756 -0.226569 -2.695512
v -0.520000 -0.170000 -1.350000
v -0.439489 -0.250000 -1.338001
v -0.496419 -0.226569 -1.346486
v -0.383025 0.260000 2.270057
v -0.300000 0.260000 2.350000
v -0.302970 0.340000 2.270000
v -0.357466 0.260000 2.326597
v -0.347455 0.306188 2.316200
v -0.300858 0.316569 2.326557
v -0.359566 0.316569 2.270029
v 0.300000 0.260000 2.350000
v 0.383025 0.260000 2.270057
v 0.302970 0.340000 2.270000
v 0.357466 0.260000 2.326597
v 0.347455 0.306188 2.316200
v 0.359566 0.316569 2.270029
v 0.300858 0.316569 2.326557
v 0.520000 0.260000 -1.350000
v 0.439489 0.340000 -1.338001
v 0.496419 0.316569 -1.346486
v 0.026203 0.260000 -2.774413
v -0.026203 0.260000 -2.774413
v -0.000000 0.340000 -2.605757
v -0.000000 0.260000 -2.805722
v -0.000000 0.306189 -2.758188
v -0.028756 0.316569 -2.695512
v 0.028756 0.316569 -2.695512
v -0.439489 0.340000 -1.338001
v -0.520000 0.260000 -1.350000
v -0.496419 0.316569 -1.346486
v -0.452007 -0.120000 -0.846682
v -0.510796 -0.200000 -0.911971
v -0.464376 -0.120000 -0.986564
v -0.472211 -0.176569 -0.865541
v -0.455329 -0.166188 -0.916876
v -0.480957 -0.176569 -0.964452
v -0.439387 -0.120000 -0.918286
v -0.878436 -0.120000 -1.465363
v -0.775624 -0.120000 -1.453436
v -0.834251 -0.200000 -1.397154
v -0.824079 -0.120000 -1.484841
v -0.825983 -0.166188 -1.468427
v -0.792835 -0.176569 -1.436611
v -0.865534 -0.176569 -1.445044
v -2.788696 -0.120000 0.423621
v -2.761564 -0.120000 0.295363
v -2.724476 -0.200000 0.370207
v -2.794914 -0.120000 0.355307
v -2.780849 -0.166188 0.358282
v -2.749503 -0.176569 0.317537
v -2.768689 -0.176569 0.408230
v -2.210498 -0.120000 1.580384
v -2.311304 -0.120000 1.546379
v -2.241543 -0.200000 1.505996
v -2.268865 -0.120000 1.586992
v -2.263801 -0.166188 1.571978
v -2.290817 -0.176569 1.534392
v -2.219537 -0.176569 1.558437
v -1.247993 -0.120000 0.976682
v -1.349502 -0.120000 1.089616
v -1.342692 -0.200000 0.993651
v -1.290982 -0.120000 1.040129
v -1.299010 -0.166189 1.032913
v -1.337892 -0.176569 1.056028
v -1.280158 -0.176569 0.991795
v -0.452007 0.120000 -0.846682
v -0.464376 0.120000 -0.986564
v -0.510796 0.200000 -0.911971
v -0.439387 0.120000 -0.918286
v -0.455329 0.166188 -0.916876
v -0.480957 0.176569 -0.964452
v -0.472211 0.176569 -0.865541
v -0.775624 0.120000 -1.453436
v -0.878436 0.120000 -1.465363
v -0.834251 0.200000 -1.397154
v -0.824079 0.120000 -1.484841
v -0.825983 0.166188 -1.468427
v -0.865534 0.176569 -1.445044
v -0.792835 0.176569 -1.436611
v -2.761564 0.120000 0.295362
v -2.788696 0.120000 0.423621
v -2.724476 0.200000 0.370207
v -2.794914 0.120000 0.355307
v -2.780849 0.166188 0.358282
v -2.768689 0.176569 0.408230
v -2.749503 0.176569 0.317537
v -2.311304 0.120000 1.546379
v -2.210498 0.120000 1.580384
v -2.241543 0.200000 1.505996
v -2.268865 0.120000 1.586992
v -2.263801 0.166188 1.571978
v -2.219537 0.176569 1.558437
v -2.290817 0.176569 1.534392
v -1.247993 0.120000 0.976682
v -1.342692 0.200000 0.993651
v -1.349502 0.120000 1.089616
v -1.280158 0.176569 0.991795
v -1.299010 0.166189 1.032913
v -1.337892 0.176569 1.056028
v -1.290982 0.120000 1.040129
v 0.452007 -0.120000 -0.846682
v 0.510796 -0.200000 -0.911971
v 0.464376 -0.120000 -0.986564
v 0.472211 -0.176569 -0.865541
v 0.455329 -0.166188 -0.916876
v 0.480957 -0.176569 -0.964452
v 0.439387 -0.120000 -0.918286
v 0.878436 -0.120000 -1.465363
v 0.775624 -0.120000 -1.453436
v 0.834251 -0.200000 -1.397154
v 0.824079 -0.120000 -1.484841
v 0.825983 -0.166188 -1.468427
v 0.792835 -0.176569 -1.436611
v 0.865534 -0.176569 -1.445044
v 2.788696 -0.120000 0.423621
v 2.761564 -0.120000 0.295363
v 2.724476 -0.200000 0.370207
v 2.794914 -0.120000 0.355307
v 2.780849 -0.166188 0.358282
v 2.749503 -0.176569 0.317537
v 2.768689 -0.176569 0.408230
v 2.210498 -0.120000 1.580384
v 2.311304 -0.120000 1.546379
v 2.241543 -0.200000 1.505996
v 2.268865 -0.120000 1.586992
v 2.263801 -0.166188 1.571978
v 2.290817 -0.176569 1.534392
v 2.219537 -0.176569 1.558437
v 1.247993 -0.120000 0.976682
v 1.349502 -0.120000 1.089616
v 1.342692 -0.200000 0.993651
v 1.290982 -0.120000 1.040129
v 1.299010 -0.166189 1.032913
v 1.337892 -0.176569 1.056028
v 1.280158 -0.176569 0.991795
v 0.452007 0.120000 -0.846682
v 0.464376 0.120000 -0.986564
v 0.510796 0.200000 -0.911971
v 0.439387 0.120000 -0.918286
v 0.455329 0.166188 -0.916876
v 0.480957 0.176569 -0.964452
v 0.472211 0.176569 -0.865541
v 0.775624 0.120000 -1.453436
v 0.878436 0.120000 -1.465363
v 0.834251 0.200000 -1.397154
v 0.824079 0.120000 -1.484841
v 0.825983 0.166188 -1.468427
v 0.865534 0.176569 -1.445044
v 0.792835 0.176569 -1.436611
v 2.761564 0.120000 0.295362
v 2.788696 0.120000 0.423621
v 2.724476 0.200000 0.370207
v 2.794914 0.120000 0.355307
v 2.780849 0.166188 0.358282
v 2.768689 0.176569 0.408230
v 2.749503 0.176569 0.317537
v 2.311304 0.120000 1.546379
v 2.210498 0.120000 1.580384
v 2.241543 0.200000 1.505996
v 2.268865 0.120000 1.586992
v 2.263801 0.166188 1.571978
v 2.219537 0.176569 1.558437
v 2.290817 0.176569 1.534392
v 1.247993 0.120000 0.976682
v 1.342692 0.200000 0.993651
v 1.349502 0.120000 1.089616
v 1.280158 0.176569 0.991795
v 1.299010 0.166189 1.032913
v 1.337892 0.176569 1.056028
v 1.290982 0.120000 1.040129
v -1.538261 -0.220000 0.799981
v -1.616736 -0.300000 0.870996
v -1.605632 -0.220000 0.765743
v -1.563906 -0.276569 0.826015
v -1.569719 -0.266188 0.778478
v -1.611544 -0.276569 0.801805
v -1.556054 -0.220000 0.751590
v -2.219613 -0.220000 1.257559
v -2.134368 -0.220000 1.134257
v -2.129761 -0.300000 1.228559
v -2.186522 -0.220000 1.189318
v -2.177716 -0.266189 1.195406
v -2.141539 -0.276569 1.167815
v -2.190750 -0.276569 1.238997
v -2.347198 -0.220000 2.016835
v -2.400388 -0.220000 1.972441
v -2.301614 -0.300000 1.908158
v -2.398312 -0.220000 2.024014
v -2.375453 -0.266188 1.996627
v -2.366078 -0.276569 1.947169
v -2.328468 -0.276569 1.978559
v -1.521739 -0.220000 1.560019
v -1.592802 -0.220000 1.673165
v -1.601127 -0.300000 1.589047
v -1.540468 -0.220000 1.627145
v -1.552896 -0.266188 1.619339
v -1.596604 -0.276569 1.647671
v -1.546355 -0.276569 1.567665
v -1.538261 0.000000 0.799981
v -1.605632 0.000000 0.765743
v -1.616736 0.080000 0.870996
v -1.556054 0.000000 0.751590
v -1.569719 0.046188 0.778478
v -1.611544 0.056569 0.801805
v -1.563906 0.056569 0.826015
v -2.134368 0.000000 1.134257
v -2.219613 0.000000 1.257559
v -2.129761 0.080000 1.228559
v -2.186522 0.000000 1.189318
v -2.177716 0.046189 1.195406
v -2.190750 0.056569 1.238997
v -2.141538 0.056569 1.167815
v -2.400388 0.000000 1.972441
v -2.347198 0.000000 2.016835
v -2.301614 0.080000 1.908158
v -2.398312 0.000000 2.024014
v -2.375453 0.046188 1.996627
v -2.328468 0.056569 1.978559
v -2.366078 0.056569 1.947168
v -1.521739 0.000000 1.560019
v -1.601127 0.080000 1.589047
v -1.592802 0.000000 1.673165
v -1.546355 0.056569 1.567665
v -1.552896 0.046188 1.619339
v -1.596604 0.056569 1.647671
v -1.540468 0.000000 1.627145
v 1.538261 -0.220000 0.799981
v 1.616736 -0.300000 0.870996
v 1.605632 -0.220000 0.765743
v 1.563906 -0.276569 0.826015
v 1.569719 -0.266188 0.778478
v 1.611544 -0.276569 0.801805
v 1.556054 -0.220000 0.751590
v 2.219613 -0.220000 1.257559
v 2.134368 -0.220000 1.134257
v 2.129761 -0.300000 1.228559
v 2.186522 -0.220000 1.189318
v 2.177716 -0.266189 1.195406
v 2.141539 -0.276569 1.167815
v 2.190750 -0.276569 1.238997
v 2.347198 -0.220000 2.016835
v 2.400388 -0.220000 1.972441
v 2.301614 -0.300000 1.908158
v 2.398312 -0.220000 2.024014
v 2.375453 -0.266188 1.996627
v 2.366078 -0.276569 1.947169
v 2.328468 -0.276569 1.978559
v 1.521739 -0.220000 1.560019
v 1.592802 -0.220000 1.673165
v 1.601127 -0.300000 1.589047
v 1.540468 -0.220000 1.627145
v 1.552896 -0.266188 1.619339
v 1.596604 -0.276569 1.647671
v 1.546355 -0.276569 1.567665
v 1.538261 0.000000 0.799981
v 1.605632 0.000000 0.765743
v 1.616736 0.080000 0.870996
v 1.556054 0.000000 0.751590
v 1.569719 0.046188 0.778478
v 1.611544 0.056569 0.801805
v 1.563906 0.056569 0.826015
v 2.134368 0.000000 1.134257
v 2.219613 0.000000 1.257559
v 2.129761 0.080000 1.228559
v 2.186522 0.000000 1.189318
v 2.177716 0.046189 1.195406
v 2.190750 0.056569 1.238997
v 2.141538 0.056569 1.167815
v 2.400388 0.000000 1.972441
v 2.347198 0.000000 2.016835
v 2.301614 0.080000 1.908158
v 2.398312 0.000000 2.024014
v 2.375453 0.046188 1.996627
v 2.328468 0.056569 1.978559
v 2.366078 0.056569 1.947168
v 1.521739 0.000000 1.560019
v 1.601127 0.080000 1.589047
v 1.592802 0.000000 1.673165
v 1.546355 0.056569 1.567665
v 1.552896 0.046188 1.619339
v 1.596604 0.056569 1.647671
v 1.540468 0.000000 1.627145
v -0.313277 -0.260000 1.799717
v -0.232969 -0.340000 1.800000
v -0.240000 -0.260000 1.720000
v -0.289691 -0.316569 1.799859
v -0.283281 -0.306188 1.753752
v -0.237877 -0.316569 1.743490
v -0.294663 -0.260000 1.743290
v 0.313277 -0.260000 1.799717
v 0.240000 -0.260000 1.720000
v 0.232969 -0.340000 1.800000
v 0.294663 -0.260000 1.743290
v 0.283281 -0.306188 1.753752
v 0.237877 -0.316569 1.743490
v 0.289691 -0.316569 1.799859
v 0.170000 -0.260000 2.550000
v 0.256723 -0.260000 2.470283
v 0.176463 -0.340000 2.470000
v 0.228592 -0.260000 2.526710
v 0.218975 -0.306188 2.516248
v 0.233162 -0.316569 2.470141
v 0.171839 -0.316569 2.526510
v -0.256723 -0.260000 2.470283
v -0.170000 -0.260000 2.550000
v -0.176463 -0.340000 2.470000
v -0.228592 -0.260000 2.526710
v -0.218975 -0.306188 2.516248
v -0.171839 -0.316569 2.526510
v -0.233162 -0.316569 2.470141
v -0.313277 -0.020000 1.799717
v -0.240000 -0.020000 1.720000
v -0.232969 0.060000 1.800000
v -0.294663 -0.020000 1.743290
v -0.283281 0.026188 1.753752
v -0.237877 0.036569 1.743490
v -0.289691 0.036569 1.799859
v 0.240000 -0.020000 1.720000
v 0.313277 -0.020000 1.799717
v 0.232969 0.060000 1.800000
v 0.294663 -0.020000 1.743290
v 0.283281 0.026188 1.753752
v 0.289691 0.036569 1.799859
v 0.237877 0.036569 1.743490
v 0.256723 -0.020000 2.470283
v 0.170000 -0.020000 2.550000
v 0.176463 0.060000 2.470000
v 0.228592 -0.020000 2.526710
v 0.218975 0.026188 2.516248
v 0.171839 0.036569 2.526510
v 0.233162 0.036569 2.470141
v -0.256723 -0.020000 2.470283
v -0.176463 0.060000 2.470000
v -0.170000 -0.020000 2.550000
v -0.233162 0.036569 2.470141
v -0.218975 0.026188 2.516248
v -0.171839 0.036569 2.526510
v -0.228592 -0.020000 2.526710
vn -0.8779 -0.3219 0.3545
vn -0.3235 -0.8846 0.3359
vn -0.3211 -0.3219 0.8907
vn 0.8779 -0.3219 0.3545
vn 0.3211 -0.3219 0.8907
vn 0.3235 -0.8846 0.3359
vn -0.6901 -0.5548 -0.4648
vn 0.6901 -0.5548 -0.4648
vn -0.0000 -0.9763 -0.2166
vn -0.8779 0.3219 0.3545
vn -0.3211 0.3219 0.8907
vn -0.3235 0.8846 0.3359
vn 0.3211 0.3219 0.8907
vn 0.8779 0.3219 0.3545
vn 0.3235 0.8846 0.3359
vn 0.6901 0.5548 -0.4648
vn -0.6901 0.5548 -0.4648
vn -0.0000 0.9763 -0.2165
vn -0.9232 -0.3828 0.0349
vn -0.3824 -0.9239 0.0145
vn -0.3616 -0.9239 -0.1253
vn -0.8729 -0.3827 -0.3026
vn 0.3616 -0.9239 -0.1253
vn 0.8729 -0.3827 -0.3026
vn 0.3824 -0.9239 0.0145
vn 0.9232 -0.3828 0.0349
vn -0.0000 -0.9239 0.3828
vn -0.0000 -0.3828 0.9238
vn -0.3824 0.9239 0.0145
vn -0.9232 0.3828 0.0349
vn -0.0000 0.3828 0.9238
vn -0.0000 0.9239 0.3828
vn 0.9232 0.3828 0.0349
vn 0.3824 0.9239 0.0145
vn 0.8729 0.3827 -0.3026
vn 0.3616 0.9239 -0.1253
vn -0.8729 0.3827 -0.3026
vn -0.3616 0.9239 -0.1253
vn -0.3772 -0.0000 0.9261
vn -0.9112 -0.0000 0.4119
vn 0.9112 -0.0000 0.4119
vn 0.3772 -0.0000 0.9261
vn -0.7669 -0.0000 -0.6418
vn 0.7669 -0.0000 -0.6418
vn -0.9993 -0.0000 0.0378
vn -0.0000 -1.0000 -0.0000
vn -0.0000 -0.0000 1.0000
vn 0.9993 -0.0000 0.0378
vn 0.9448 -0.0000 -0.3275
vn -0.9448 -0.0000 -0.3275
vn -0.0000 1.0000 -0.0000
vn 0.9157 -0.3543 0.1898
vn 0.5170 -0.8548 -0.0457
vn 0.8681 -0.3543 -0.3475
vn -0.3571 -0.3481 -0.8668
vn 0.5461 -0.3481 -0.7620
vn 0.0491 -0.9046 -0.4234
vn -0.9383 -0.3253 0.1173
vn -0.8104 -0.3253 -0.4872
vn -0.4951 -0.8625 -0.1047
vn 0.1480 -0.3398 0.9288
vn -0.6803 -0.3398 0.6494
vn -0.1396 -0.8996 0.4139
vn 0.8141 -0.2793 0.5092
vn 0.5928 -0.2793 0.7554
vn 0.3710 -0.8667 0.3335
vn 0.9157 0.3543 0.1898
vn 0.8681 0.3543 -0.3475
vn 0.5170 0.8548 -0.0457
vn 0.5461 0.3481 -0.7620
vn -0.3571 0.3481 -0.8668
vn 0.0491 0.9046 -0.4234
vn -0.8104 0.3253 -0.4872
vn -0.9383 0.3253 0.1173
vn -0.4951 0.8625 -0.1047
vn -0.6803 0.3398 0.6494
vn 0.1480 0.3398 0.9288
vn -0.1396 0.8996 0.4139
vn 0.8141 0.2793 0.5092
vn 0.3710 0.8667 0.3335
vn 0.5928 0.2793 0.7554
vn 0.8399 -0.4009 0.3660
vn 0.3579 -0.9206 0.1560
vn 0.1896 -0.9237 0.3328
vn 0.4573 -0.3835 0.8024
vn -0.3552 -0.9225 0.1509
vn -0.8474 -0.3904 0.3599
vn -0.2638 -0.9224 -0.2821
vn -0.6287 -0.3912 -0.6722
vn 0.3260 -0.9203 -0.2164
vn 0.7629 -0.4021 -0.5063
vn 0.3579 0.9206 0.1560
vn 0.8399 0.4009 0.3660
vn 0.7629 0.4021 -0.5063
vn 0.3260 0.9203 -0.2164
vn -0.6287 0.3912 -0.6722
vn -0.2638 0.9224 -0.2821
vn -0.8474 0.3904 0.3599
vn -0.3552 0.9225 0.1509
vn 0.4573 0.3835 0.8024
vn 0.1896 0.9237 0.3328
vn 0.9391 -0.0000 -0.3437
vn 0.9848 -0.0000 0.1736
vn -0.3373 -0.0000 -0.9414
vn 0.5439 -0.0000 -0.8392
vn -0.9959 -0.0000 0.0906
vn -0.8739 -0.0000 -0.4862
vn 0.1125 -0.0000 0.9937
vn -0.6914 -0.0000 0.7225
vn 0.8279 -0.0000 0.5609
vn 0.6457 -0.0000 0.7636
vn 0.9165 -0.0000 0.4001
vn 0.8321 -0.0000 -0.5547
vn -0.6830 -0.0000 -0.7304
vn -0.9203 -0.0000 0.3913
vn 0.4952 -0.0000 0.8688
vn 0.9157 0.3543 -0.1898
vn 0.5170 0.8548 0.0457
vn 0.8681 0.3543 0.3475
vn -0.3571 0.3481 0.8668
vn 0.5461 0.3481 0.7620
vn 0.0491 0.9046 0.4234
vn -0.9383 0.3253 -0.1173
vn -0.8104 0.3253 0.4872
vn -0.4951 0.8625 0.1047
vn 0.1480 0.3398 -0.9288
vn -0.6803 0.3398 -0.6494
vn -0.1396 0.8996 -0.4139
vn 0.8141 0.2793 -0.5092
vn 0.5928 0.2793 -0.7554
vn 0.3710 0.8667 -0.3335
vn 0.9157 -0.3543 -0.1898
vn 0.8681 -0.3543 0.3475
vn 0.5170 -0.8548 0.0457
vn 0.5461 -0.3481 0.7620
vn -0.3571 -0.3481 0.8668
vn 0.0491 -0.9046 0.4234
vn -0.8104 -0.3253 0.4872
vn -0.9383 -0.3253 -0.1173
vn -0.4951 -0.8625 0.1047
vn -0.6803 -0.3398 -0.6494
vn 0.1480 -0.3398 -0.9288
vn -0.1396 -0.8996 -0.4139
vn 0.8141 -0.2793 -0.5092
vn 0.3710 -0.8667 -0.3335
vn 0.5928 -0.2793 -0.7554
vn 0.8399 0.4009 -0.3660
vn 0.3579 0.9206 -0.1560
vn 0.1896 0.9237 -0.3328
vn 0.4573 0.3835 -0.8024
vn -0.3552 0.9225 -0.1509
vn -0.8474 0.3904 -0.3599
vn -0.2638 0.9224 0.2821
vn -0.6287 0.3912 0.6722
vn 0.3260 0.9203 0.2164
vn 0.7629 0.4021 0.5063
vn 0.3579 -0.9206 -0.1560
vn 0.8399 -0.4009 -0.3660
vn 0.7629 -0.4021 0.5063
vn 0.3260 -0.9203 0.2164
vn -0.6287 -0.3912 0.6722
vn -0.2638 -0.9224 0.2821
vn -0.8474 -0.3904 -0.3599
vn -0.3552 -0.9225 -0.1509
vn 0.4573 -0.3835 -0.8024
vn 0.1896 -0.9237 -0.3328
vn 0.9391 -0.0000 0.3437
vn 0.9848 -0.0000 -0.1736
vn -0.3373 -0.0000 0.9414
vn 0.5439 -0.0000 0.8392
vn -0.9959 -0.0000 -0.0906
vn -0.8739 -0.0000 0.4862
vn 0.1125 -0.0000 -0.9937
vn -0.6914 -0.0000 -0.7225
vn 0.8279 -0.0000 -0.5609
vn 0.6457 -0.0000 -0.7636
vn 0.9165 -0.0000 -0.4001
vn 0.8321 -0.0000 0.5547
vn -0.6830 -0.0000 0.7304
vn -0.9203 -0.0000 -0.3913
vn 0.4952 -0.0000 -0.8688
vn 0.8502 -0.4585 -0.2588
vn 0.1403 -0.9508 -0.2762
vn -0.2921 -0.4585 -0.8393
vn -0.8795 -0.2753 -0.3883
vn -0.6739 -0.2753 -0.6856
vn -0.4127 -0.8650 -0.2853
vn 0.1705 -0.4806 0.8602
vn -0.8768 -0.4806 -0.0140
vn -0.1804 -0.9595 0.2162
vn 0.9167 -0.3308 0.2239
vn 0.5998 -0.3308 0.7286
vn 0.4323 -0.8599 0.2715
vn 0.8502 0.4585 -0.2588
vn -0.2921 0.4585 -0.8393
vn 0.1403 0.9508 -0.2762
vn -0.6739 0.2753 -0.6856
vn -0.8795 0.2753 -0.3883
vn -0.4127 0.8650 -0.2853
vn -0.8768 0.4807 -0.0140
vn 0.1705 0.4807 0.8602
vn -0.1804 0.9595 0.2162
vn 0.9167 0.3308 0.2239
vn 0.4323 0.8599 0.2715
vn 0.5998 0.3308 0.7286
vn 0.9114 -0.4110 -0.0207
vn 0.3946 -0.9188 -0.0090
vn 0.1642 -0.9177 0.3617
vn 0.3756 -0.4170 0.8277
vn -0.3811 -0.9196 -0.0953
vn -0.8854 -0.4085 -0.2216
vn -0.2225 -0.9206 -0.3208
vn -0.5218 -0.4025 -0.7521
vn 0.3946 0.9188 -0.0090
vn 0.9114 0.4110 -0.0207
vn -0.5218 0.4025 -0.7521
vn -0.2225 0.9206 -0.3208
vn -0.8854 0.4085 -0.2216
vn -0.3811 0.9196 -0.0953
vn 0.3756 0.4170 0.8277
vn 0.1642 0.9177 0.3617
vn -0.2745 -0.0000 -0.9616
vn 0.9386 -0.0000 -0.3451
vn -0.8998 -0.0000 -0.4363
vn -0.7260 -0.0000 -0.6877
vn 0.1391 -0.0000 0.9903
vn -0.9992 -0.0000 0.0402
vn 0.9632 -0.0000 0.2688
vn 0.6604 -0.0000 0.7509
vn 0.9998 -0.0000 -0.0217
vn -0.5718 -0.0000 -0.8204
vn -0.9695 -0.0000 -0.2452
vn 0.4146 -0.0000 0.9100
vn 0.8502 0.4585 0.2588
vn 0.1403 0.9508 0.2762
vn -0.2921 0.4585 0.8393
vn -0.8795 0.2753 0.3883
vn -0.6739 0.2753 0.6856
vn -0.4127 0.8650 0.2853
vn 0.1705 0.4806 -0.8602
vn -0.8768 0.4806 0.0140
vn -0.1804 0.9595 -0.2162
vn 0.9167 0.3308 -0.2239
vn 0.5998 0.3308 -0.7286
vn 0.4323 0.8599 -0.2715
vn 0.8502 -0.4585 0.2588
vn -0.2921 -0.4585 0.8393
vn 0.1403 -0.9508 0.2762
vn -0.6739 -0.2753 0.6856
vn -0.8795 -0.2753 0.3883
vn -0.4127 -0.8650 0.2853
vn -0.8768 -0.4807 0.0140
vn 0.1705 -0.4807 -0.8602
vn -0.1804 -0.9595 -0.2162
vn 0.9167 -0.3308 -0.2239
vn 0.4323 -0.8599 -0.2715
vn 0.5998 -0.3308 -0.7286
vn 0.9114 0.4110 0.0207
vn 0.3946 0.9188 0.0090
vn 0.1642 0.9177 -0.3617
vn 0.3756 0.4170 -0.8277
vn -0.3811 0.9196 0.0953
vn -0.8854 0.4085 0.2216
vn -0.2225 0.9206 0.3208
vn -0.5218 0.4025 0.7521
vn 0.3946 -0.9188 0.0090
vn 0.9114 -0.4110 0.0207
vn -0.5218 -0.4025 0.7521
vn -0.2225 -0.9206 0.3208
vn -0.8854 -0.4085 0.2216
vn -0.3811 -0.9196 0.0953
vn 0.3756 -0.4170 -0.8277
vn 0.1642 -0.9177 -0.3617
vn -0.2745 -0.0000 0.9616
vn 0.9386 -0.0000 0.3451
vn -0.8998 -0.0000 0.4363
vn -0.7260 -0.0000 0.6877
vn 0.1391 -0.0000 -0.9903
vn -0.9992 -0.0000 -0.0402
vn 0.9632 -0.0000 -0.2688
vn 0.6604 -0.0000 -0.7509
vn 0.9998 -0.0000 0.0217
vn -0.5718 -0.0000 0.8204
vn -0.9695 -0.0000 0.2452
vn 0.4146 -0.0000 -0.9100
vn 0.9070 0.3350 0.2553
vn 0.3265 0.8963 0.3001
vn 0.3306 0.3350 0.8823
vn -0.9070 0.3350 0.2553
vn -0.3306 0.3350 0.8823
vn -0.3265 0.8963 0.3001
vn -0.3150 0.3192 -0.8938
vn -0.8642 0.3192 -0.3890
vn -0.3207 0.8805 -0.3489
vn 0.8642 0.3192 -0.3890
vn 0.3150 0.3192 -0.8938
vn 0.3207 0.8805 -0.3489
vn 0.9070 -0.3350 0.2553
vn 0.3306 -0.3350 0.8823
vn 0.3265 -0.8963 0.3001
vn -0.3306 -0.3350 0.8823
vn -0.9070 -0.3350 0.2553
vn -0.3265 -0.8963 0.3001
vn -0.8642 -0.3192 -0.3890
vn -0.3150 -0.3192 -0.8938
vn -0.3207 -0.8805 -0.3489
vn 0.8642 -0.3192 -0.3890
vn 0.3207 -0.8805 -0.3489
vn 0.3150 -0.3192 -0.8938
vn 0.9203 0.3835 -0.0776
vn 0.3817 0.9237 -0.0322
vn -0.0000 0.9237 -0.3830
vn -0.0000 0.3835 -0.9235
vn -0.3817 0.9237 -0.0322
vn -0.9203 0.3835 -0.0776
vn -0.0000 0.9237 0.3830
vn -0.0000 0.3835 0.9235
vn 0.3817 -0.9237 -0.0322
vn 0.9203 -0.3835 -0.0776
vn -0.0000 -0.3835 0.9235
vn -0.0000 -0.9237 0.3830
vn -0.9203 -0.3835 -0.0776
vn -0.3817 -0.9237 -0.0322
vn -0.0000 -0.3835 -0.9235
vn -0.0000 -0.9237 -0.3830
vn 0.3920 -0.0000 0.9200
vn 0.9497 -0.0000 0.3133
vn -0.9497 -0.0000 0.3133
vn -0.3920 -0.0000 0.9200
vn -0.3694 -0.0000 -0.9293
vn -0.8949 -0.0000 -0.4462
vn 0.8949 -0.0000 -0.4462
vn 0.3694 -0.0000 -0.9293
vn 0.9965 -0.0000 -0.0840
vn -0.9965 -0.0000 -0.0840
vn -0.0000 -0.0000 -1.0000
vt 0.440152 0.082804
vt 0.440157 0.082670
vt 0.442256 0.072006
vt 0.440625 0.070313
vt 0.452661 0.082813
vt 0.452991 0.070313
vt 0.453125 0.070313
vt 0.559848 0.082804
vt 0.559375 0.070313
vt 0.557744 0.072006
vt 0.559843 0.082670
vt 0.546875 0.070313
vt 0.547009 0.070313
vt 0.547339 0.082813
vt 0.495906 0.871002
vt 0.500000 0.882812
vt 0.500000 0.874275
vt 0.492048 0.859873
vt 0.504094 0.871002
vt 0.507952 0.859873
vt 0.500000 0.844649
vt 0.442256 0.072006
vt 0.453125 0.070313
vt 0.546875 0.070313
vt 0.504094 0.871002
vt 0.507952 0.859873
vt 0.495906 0.871002
vt 0.492048 0.859873
vt 0.500000 0.844650
vt 0.418750 0.648438
vt 0.418876 0.648419
vt 0.431330 0.646563
vt 0.568670 0.646563
vt 0.581124 0.648419
vt 0.581250 0.648438
vt 0.431330 0.646563
vt 0.568670 0.646563
vt 0.429374 0.569794
vt 0.429949 0.571112
vt 0.433530 0.581175
vt 0.434375 0.581250
vt 0.420188 0.579996
vt 0.428239 0.590454
vt 0.427441 0.591651
vt 0.362744 0.666463
vt 0.371875 0.675000
vt 0.371513 0.671876
vt 0.362236 0.665988
vt 0.378809 0.664599
vt 0.379195 0.664021
vt 0.369648 0.655805
vt 0.064266 0.371309
vt 0.059375 0.382812
vt 0.060715 0.382529
vt 0.063879 0.372220
vt 0.068506 0.391350
vt 0.067783 0.390674
vt 0.074301 0.379655
vt 0.154610 0.190565
vt 0.143750 0.184375
vt 0.144691 0.187166
vt 0.155019 0.190798
vt 0.138859 0.195878
vt 0.138674 0.196312
vt 0.149759 0.202188
vt 0.305001 0.284893
vt 0.300000 0.273438
vt 0.299803 0.273614
vt 0.303331 0.281067
vt 0.289140 0.267247
vt 0.292767 0.269315
vt 0.290204 0.282242
vt 0.429374 0.569794
vt 0.433530 0.581175
vt 0.427441 0.591651
vt 0.428239 0.590455
vt 0.420188 0.579996
vt 0.378809 0.664599
vt 0.371875 0.675000
vt 0.371513 0.671876
vt 0.379195 0.664020
vt 0.362744 0.666463
vt 0.068506 0.391350
vt 0.060715 0.382529
vt 0.067783 0.390674
vt 0.064266 0.371309
vt 0.063879 0.372220
vt 0.074301 0.379655
vt 0.138859 0.195878
vt 0.143750 0.184375
vt 0.144691 0.187166
vt 0.138675 0.196312
vt 0.154610 0.190565
vt 0.149759 0.202188
vt 0.303331 0.281067
vt 0.290204 0.282242
vt 0.289140 0.267247
vt 0.570626 0.569794
vt 0.570051 0.571112
vt 0.566470 0.581175
vt 0.565625 0.581250
vt 0.579812 0.579996
vt 0.571761 0.590454
vt 0.572559 0.591651
vt 0.637255 0.666463
vt 0.628125 0.675000
vt 0.628487 0.671876
vt 0.637764 0.665988
vt 0.621191 0.664599
vt 0.620805 0.664021
vt 0.630352 0.655805
vt 0.935734 0.371309
vt 0.940625 0.382812
vt 0.939285 0.382529
vt 0.936121 0.372220
vt 0.931494 0.391350
vt 0.932217 0.390674
vt 0.925699 0.379655
vt 0.845390 0.190565
vt 0.856250 0.184375
vt 0.855309 0.187166
vt 0.844981 0.190798
vt 0.861141 0.195878
vt 0.861326 0.196312
vt 0.850241 0.202188
vt 0.694999 0.284893
vt 0.700000 0.273438
vt 0.700197 0.273614
vt 0.696669 0.281067
vt 0.710860 0.267247
vt 0.707233 0.269315
vt 0.709796 0.282242
vt 0.570626 0.569794
vt 0.572559 0.591651
vt 0.571761 0.590455
vt 0.579812 0.579996
vt 0.621191 0.664599
vt 0.628125 0.675000
vt 0.628487 0.671876
vt 0.620805 0.664020
vt 0.637256 0.666463
vt 0.935734 0.371309
vt 0.925699 0.379655
vt 0.856250 0.184375
vt 0.844981 0.190798
vt 0.850241 0.202188
vt 0.696669 0.281067
vt 0.707233 0.269315
vt 0.710860 0.267247
vt 0.259647 0.312503
vt 0.259733 0.308524
vt 0.256970 0.320267
vt 0.259375 0.325000
vt 0.247385 0.301407
vt 0.245855 0.315577
vt 0.249120 0.317853
vt 0.153186 0.241006
vt 0.156250 0.253125
vt 0.156534 0.252929
vt 0.154146 0.244804
vt 0.166505 0.260272
vt 0.163291 0.258033
vt 0.167225 0.245538
vt 0.133250 0.122370
vt 0.121875 0.117188
vt 0.125645 0.121705
vt 0.137930 0.124502
vt 0.124939 0.129306
vt 0.126200 0.134292
vt 0.140373 0.139350
vt 0.262228 0.193747
vt 0.262500 0.181250
vt 0.261463 0.181901
vt 0.262252 0.192637
vt 0.251125 0.176068
vt 0.252136 0.176528
vt 0.249824 0.189211
vt 0.256970 0.320267
vt 0.259733 0.308524
vt 0.249120 0.317853
vt 0.247385 0.301407
vt 0.166505 0.260272
vt 0.153186 0.241006
vt 0.167225 0.245538
vt 0.124939 0.129306
vt 0.126200 0.134292
vt 0.137930 0.124502
vt 0.140373 0.139350
vt 0.262228 0.193747
vt 0.261463 0.181901
vt 0.252136 0.176528
vt 0.740353 0.312503
vt 0.740267 0.308524
vt 0.743030 0.320267
vt 0.740625 0.325000
vt 0.752615 0.301407
vt 0.754145 0.315577
vt 0.750880 0.317853
vt 0.846814 0.241006
vt 0.843750 0.253125
vt 0.843466 0.252929
vt 0.845854 0.244804
vt 0.833495 0.260272
vt 0.836709 0.258033
vt 0.832775 0.245538
vt 0.866750 0.122370
vt 0.878125 0.117188
vt 0.874355 0.121705
vt 0.862070 0.124502
vt 0.875061 0.129306
vt 0.873800 0.134292
vt 0.859627 0.139350
vt 0.737772 0.193747
vt 0.737500 0.181250
vt 0.738537 0.181901
vt 0.737748 0.192637
vt 0.748875 0.176068
vt 0.747864 0.176528
vt 0.750176 0.189211
vt 0.743030 0.320267
vt 0.750880 0.317853
vt 0.752615 0.301407
vt 0.833495 0.260272
vt 0.836709 0.258033
vt 0.846815 0.241006
vt 0.845854 0.244804
vt 0.832775 0.245538
vt 0.878125 0.117188
vt 0.873800 0.134292
vt 0.859627 0.139350
vt 0.737772 0.193747
vt 0.738537 0.181901
vt 0.747864 0.176528
vt 0.451050 0.156294
vt 0.451078 0.155964
vt 0.452073 0.166844
vt 0.450000 0.168750
vt 0.463599 0.156250
vt 0.462832 0.168750
vt 0.462500 0.168750
vt 0.548949 0.156294
vt 0.550000 0.168750
vt 0.547927 0.166844
vt 0.548922 0.155964
vt 0.537500 0.168750
vt 0.537168 0.168750
vt 0.536401 0.156250
vt 0.526563 0.039063
vt 0.539062 0.039063
vt 0.537582 0.040673
vt 0.526850 0.039063
vt 0.540113 0.051518
vt 0.540089 0.051232
vt 0.527572 0.051562
vt 0.459887 0.051518
vt 0.460938 0.039063
vt 0.462418 0.040673
vt 0.459911 0.051232
vt 0.473437 0.039063
vt 0.473150 0.039063
vt 0.472428 0.051562
vt 0.451050 0.156294
vt 0.452073 0.166844
vt 0.463599 0.156250
vt 0.550000 0.168750
vt 0.547927 0.166844
vt 0.548949 0.156294
vt 0.540113 0.051518
vt 0.537582 0.040673
vt 0.540089 0.051232
vt 0.526563 0.039063
vt 0.527572 0.051562
vt 0.459887 0.051518
vt 0.459911 0.051232
vt 0.462418 0.040673
vt 0.473438 0.039063
s 0
usemtl DroneFriendly
f 1/1/1 4/2/1 5/3/1 7/4/1
f 2/5/2 6/6/2 5/3/2 4/2/2
f 3/7/3 7/4/3 5/3/3 6/6/3
f 8/8/4 11/9/4 12/10/4 14/11/4
f 9/12/5 13/13/5 12/10/5 11/9/5
f 10/14/6 14/11/6 12/10/6 13/13/6
f 18/15/7 21/16/7 22/17/7 24/18/7
f 19/19/8 23/20/8 22/17/8 21/16/8
f 20/21/9 24/18/9 22/17/9 23/20/9
f 28/1/10 31/4/10 32/22/10 34/2/10
f 29/23/11 33/6/11 32/22/11 31/4/11
f 30/5/12 34/2/12 32/22/12 33/6/12
f 35/24/13 38/9/13 39/10/13 41/13/13
f 36/8/14 40/11/14 39/10/14 38/9/14
f 37/14/15 41/13/15 39/10/15 40/11/15
f 45/25/16 48/16/16 49/17/16 51/26/16
f 46/27/17 50/28/17 49/17/17 48/16/17
f 47/29/18 51/26/18 49/17/18 50/28/18
f 1/1/19 25/30/19 27/31/19 4/2/19
f 4/2/20 27/31/20 26/32/20 2/5/20
f 20/21/21 26/32/21 27/31/21 24/18/21
f 24/18/22 27/31/22 25/30/22 18/15/22
f 16/33/23 20/21/23 23/20/23 17/34/23
f 17/34/24 23/20/24 19/19/24 15/35/24
f 10/14/25 16/33/25 17/34/25 14/11/25
f 14/11/26 17/34/26 15/35/26 8/8/26
f 2/5/27 10/14/27 13/13/27 6/6/27
f 6/6/28 13/13/28 9/12/28 3/7/28
f 30/5/29 52/36/29 54/31/29 34/2/29
f 34/2/30 54/31/30 53/30/30 28/1/30
f 29/23/31 35/24/31 41/13/31 33/6/31
f 33/6/32 41/13/32 37/14/32 30/5/32
f 36/8/33 42/35/33 44/34/33 40/11/33
f 40/11/34 44/34/34 43/37/34 37/14/34
f 42/35/35 45/25/35 51/26/35 44/34/35
f 44/34/36 51/26/36 47/29/36 43/37/36
f 46/27/37 53/30/37 54/31/37 50/28/37
f 50/28/38 54/31/38 52/36/38 47/29/38
f 3/7/39 29/23/39 31/4/39 7/4/39
f 7/4/40 31/4/40 28/1/40 1/1/40
f 8/8/41 36/8/41 38/9/41 11/9/41
f 11/9/42 38/9/42 35/24/42 9/12/42
f 18/15/43 46/27/43 48/16/43 21/16/43
f 21/16/44 48/16/44 45/25/44 19/19/44
f 25/30/45 1/1/45 28/1/45 53/30/45
f 26/32/46 20/21/46 16/33/46 10/14/46 2/5/46
f 3/7/47 9/12/47 35/24/47 29/23/47
f 8/8/48 15/35/48 42/35/48 36/8/48
f 15/35/49 19/19/49 45/25/49 42/35/49
f 18/15/50 25/30/50 53/30/50 46/27/50
f 30/5/51 37/14/51 43/37/51 47/29/51 52/36/51
f 55/38/52 58/39/52 59/40/52 61/41/52
f 56/42/53 60/43/53 59/40/53 58/39/53
f 57/44/54 61/41/54 59/40/54 60/43/54
f 62/45/55 65/46/55 66/47/55 68/48/55
f 63/49/56 67/50/56 66/47/56 65/46/56
f 64/51/57 68/48/57 66/47/57 67/50/57
f 69/52/58 72/53/58 73/54/58 75/55/58
f 70/56/59 74/57/59 73/54/59 72/53/59
f 71/58/60 75/55/60 73/54/60 74/57/60
f 76/59/61 79/60/61 80/61/61 82/62/61
f 77/63/62 81/64/62 80/61/62 79/60/62
f 78/65/63 82/62/63 80/61/63 81/64/63
f 83/66/64 86/67/64 87/68/64 89/69/64
f 84/70/65 88/71/65 87/68/65 86/67/65
f 85/72/66 89/69/66 87/68/66 88/71/66
f 90/73/67 93/41/67 94/74/67 96/39/67
f 91/75/68 95/76/68 94/74/68 93/41/68
f 92/77/69 96/39/69 94/74/69 95/76/69
f 97/78/70 100/79/70 101/80/70 103/81/70
f 98/82/71 102/48/71 101/80/71 100/79/71
f 99/51/72 103/81/72 101/80/72 102/48/72
f 104/83/73 107/53/73 108/84/73 110/85/73
f 105/86/74 109/87/74 108/84/74 107/53/74
f 106/88/75 110/85/75 108/84/75 109/87/75
f 111/89/76 114/90/76 115/91/76 117/92/76
f 112/93/77 116/62/77 115/91/77 114/90/77
f 113/94/78 117/92/78 115/91/78 116/62/78
f 118/66/79 121/95/79 122/68/79 124/67/79
f 119/96/80 123/71/80 122/68/80 121/95/80
f 120/97/81 124/67/81 122/68/81 123/71/81
f 55/38/82 83/66/82 89/69/82 58/39/82
f 58/39/83 89/69/83 85/72/83 56/42/83
f 78/65/84 85/72/84 88/71/84 82/62/84
f 82/62/85 88/71/85 84/70/85 76/59/85
f 71/58/86 78/65/86 81/64/86 75/55/86
f 75/55/87 81/64/87 77/63/87 69/52/87
f 64/51/88 71/58/88 74/57/88 68/48/88
f 68/48/89 74/57/89 70/56/89 62/45/89
f 56/42/90 64/51/90 67/50/90 60/43/90
f 60/43/91 67/50/91 63/49/91 57/44/91
f 92/77/92 119/96/92 121/95/92 96/39/92
f 96/39/93 121/95/93 118/66/93 90/73/93
f 91/75/94 97/78/94 103/81/94 95/76/94
f 95/76/95 103/81/95 99/51/95 92/77/95
f 98/82/96 104/83/96 110/85/96 102/48/96
f 102/48/97 110/85/97 106/88/97 99/51/97
f 105/86/98 111/89/98 117/92/98 109/87/98
f 109/87/99 117/92/99 113/94/99 106/88/99
f 112/93/100 120/97/100 123/71/100 116/62/100
f 116/62/101 123/71/101 119/96/101 113/94/101
f 57/44/102 91/75/102 93/41/102 61/41/102
f 61/41/103 93/41/103 90/73/103 55/38/103
f 62/45/104 98/82/104 100/79/104 65/46/104
f 65/46/105 100/79/105 97/78/105 63/49/105
f 69/52/106 105/86/106 107/53/106 72/53/106
f 72/53/107 107/53/107 104/83/107 70/56/107
f 76/59/108 112/93/108 114/90/108 79/60/108
f 79/60/109 114/90/109 111/89/109 77/63/109
f 83/66/110 118/66/110 124/67/110 86/67/110
f 86/67/111 124/67/111 120/97/111 84/70/111
f 83/66/112 55/38/112 90/73/112 118/66/112
f 85/72/46 78/65/46 71/58/46 64/51/46 56/42/46
f 57/44/113 63/49/113 97/78/113 91/75/113
f 62/45/114 70/56/114 104/83/114 98/82/114
f 69/52/115 77/63/115 111/89/115 105/86/115
f 76/59/116 84/70/116 120/97/116 112/93/116
f 92/77/51 99/51/51 106/88/51 113/94/51 119/96/51
f 125/98/117 128/99/117 129/100/117 131/101/117
f 126/102/118 130/103/118 129/100/118 128/99/118
f 127/104/119 131/101/119 129/100/119 130/103/119
f 132/105/120 135/106/120 136/107/120 138/108/120
f 133/109/121 137/110/121 136/107/121 135/106/121
f 134/111/122 138/108/122 136/107/122 137/110/122
f 139/112/123 142/113/123 143/114/123 145/115/123
f 140/116/124 144/117/124 143/114/124 142/113/124
f 141/118/125 145/115/125 143/114/125 144/117/125
f 146/119/126 149/120/126 150/121/126 152/122/126
f 147/123/127 151/124/127 150/121/127 149/120/127
f 148/125/128 152/122/128 150/121/128 151/124/128
f 153/126/129 156/127/129 157/128/129 159/129/129
f 154/130/130 158/131/130 157/128/130 156/127/130
f 155/132/131 159/129/131 157/128/131 158/131/131
f 160/133/132 163/101/132 164/100/132 166/99/132
f 161/134/133 165/135/133 164/100/133 163/101/133
f 162/136/134 166/99/134 164/100/134 165/135/134
f 167/137/135 170/138/135 171/139/135 173/140/135
f 168/141/136 172/108/136 171/139/136 170/138/136
f 169/111/137 173/140/137 171/139/137 172/108/137
f 174/116/138 177/113/138 178/114/138 180/117/138
f 175/142/139 179/115/139 178/114/139 177/113/139
f 176/143/140 180/117/140 178/114/140 179/115/140
f 181/123/141 184/144/141 185/121/141 187/124/141
f 182/119/142 186/145/142 185/121/142 184/144/142
f 183/146/143 187/124/143 185/121/143 186/145/143
f 188/126/144 191/147/144 192/128/144 194/127/144
f 189/132/145 193/148/145 192/128/145 191/147/145
f 190/149/146 194/127/146 192/128/146 193/148/146
f 125/98/147 153/126/147 159/129/147 128/99/147
f 128/99/148 159/129/148 155/132/148 126/102/148
f 148/125/149 155/132/149 158/131/149 152/122/149
f 152/122/150 158/131/150 154/130/150 146/119/150
f 141/118/151 148/125/151 151/124/151 145/115/151
f 145/115/152 151/124/152 147/123/152 139/112/152
f 134/111/153 141/118/153 144/117/153 138/108/153
f 138/108/154 144/117/154 140/116/154 132/105/154
f 126/102/155 134/111/155 137/110/155 130/103/155
f 130/103/156 137/110/156 133/109/156 127/104/156
f 162/136/157 189/132/157 191/147/157 166/99/157
f 166/99/158 191/147/158 188/126/158 160/133/158
f 161/134/159 167/137/159 173/140/159 165/135/159
f 165/135/160 173/140/160 169/111/160 162/136/160
f 168/141/161 174/116/161 180/117/161 172/108/161
f 172/108/162 180/117/162 176/143/162 169/111/162
f 175/142/163 181/123/163 187/124/163 179/115/163
f 179/115/164 187/124/164 183/146/164 176/143/164
f 182/119/165 190/149/165 193/148/165 186/145/165
f 186/145/166 193/148/166 189/132/166 183/146/166
f 127/104/167 161/134/167 163/101/167 131/101/167
f 131/101/168 163/101/168 160/133/168 125/98/168
f 132/105/169 168/141/169 170/138/169 135/106/169
f 135/106/170 170/138/170 167/137/170 133/109/170
f 139/112/171 175/142/171 177/113/171 142/113/171
f 142/113/172 177/113/172 174/116/172 140/116/172
f 146/119/173 182/119/173 184/144/173 149/120/173
f 149/120/174 184/144/174 181/123/174 147/123/174
f 153/126/175 188/126/175 194/127/175 156/127/175
f 156/127/176 194/127/176 190/149/176 154/130/176
f 153/126/177 125/98/177 160/133/177 188/126/177
f 155/132/51 148/125/51 141/118/51 134/111/51 126/102/51
f 127/104/178 133/109/178 167/137/178 161/134/178
f 132/105/179 140/116/179 174/116/179 168/141/179
f 139/112/180 147/123/180 181/123/180 175/142/180
f 146/119/181 154/130/181 190/149/181 182/119/181
f 162/136/46 169/111/46 176/143/46 183/146/46 189/132/46
f 195/150/182 198/151/182 199/152/182 201/153/182
f 196/154/183 200/155/183 199/152/183 198/151/183
f 197/156/184 201/153/184 199/152/184 200/155/184
f 202/157/185 205/158/185 206/159/185 208/160/185
f 203/161/186 207/162/186 206/159/186 205/158/186
f 204/163/187 208/160/187 206/159/187 207/162/187
f 209/164/188 212/165/188 213/166/188 215/167/188
f 210/168/189 214/169/189 213/166/189 212/165/189
f 211/170/190 215/167/190 213/166/190 214/169/190
f 216/171/191 219/172/191 220/173/191 222/174/191
f 217/175/192 221/176/192 220/173/192 219/172/192
f 218/177/193 222/174/193 220/173/193 221/176/193
f 223/150/194 226/153/194 227/178/194 229/179/194
f 224/180/195 228/155/195 227/178/195 226/153/195
f 225/181/196 229/179/196 227/178/196 228/155/196
f 230/182/197 233/158/197 234/159/197 236/162/197
f 231/183/198 235/160/198 234/159/198 233/158/198
f 232/184/199 236/162/199 234/159/199 235/160/199
f 237/185/200 240/165/200 241/166/200 243/186/200
f 238/164/201 242/187/201 241/166/201 240/165/201
f 239/188/202 243/186/202 241/166/202 242/187/202
f 244/189/203 247/174/203 248/190/203 250/172/203
f 245/177/204 249/191/204 248/190/204 247/174/204
f 246/175/205 250/172/205 248/190/205 249/191/205
f 195/150/206 216/171/206 222/174/206 198/151/206
f 198/151/207 222/174/207 218/177/207 196/154/207
f 211/170/208 218/177/208 221/176/208 215/167/208
f 215/167/209 221/176/209 217/175/209 209/164/209
f 204/163/210 211/170/210 214/169/210 208/160/210
f 208/160/211 214/169/211 210/168/211 202/157/211
f 196/154/212 204/163/212 207/162/212 200/155/212
f 200/155/213 207/162/213 203/161/213 197/156/213
f 225/181/214 245/177/214 247/174/214 229/179/214
f 229/179/215 247/174/215 244/189/215 223/150/215
f 224/180/216 230/182/216 236/162/216 228/155/216
f 228/155/217 236/162/217 232/184/217 225/181/217
f 231/183/218 237/185/218 243/186/218 235/160/218
f 235/160/219 243/186/219 239/188/219 232/184/219
f 238/164/220 246/175/220 249/191/220 242/187/220
f 242/187/221 249/191/221 245/177/221 239/188/221
f 197/156/222 224/180/222 226/153/222 201/153/222
f 201/153/223 226/153/223 223/150/223 195/150/223
f 202/157/224 231/183/224 233/158/224 205/158/224
f 205/158/225 233/158/225 230/182/225 203/161/225
f 209/164/226 238/164/226 240/165/226 212/165/226
f 212/165/227 240/165/227 237/185/227 210/168/227
f 216/171/228 244/189/228 250/172/228 219/172/228
f 219/172/229 250/172/229 246/175/229 217/175/229
f 216/171/230 195/150/230 223/150/230 244/189/230
f 218/177/46 211/170/46 204/163/46 196/154/46
f 197/156/231 203/161/231 230/182/231 224/180/231
f 202/157/232 210/168/232 237/185/232 231/183/232
f 209/164/233 217/175/233 246/175/233 238/164/233
f 225/181/51 232/184/51 239/188/51 245/177/51
f 251/192/234 254/193/234 255/194/234 257/195/234
f 252/196/235 256/197/235 255/194/235 254/193/235
f 253/198/236 257/195/236 255/194/236 256/197/236
f 258/199/237 261/200/237 262/201/237 264/202/237
f 259/203/238 263/204/238 262/201/238 261/200/238
f 260/205/239 264/202/239 262/201/239 263/204/239
f 265/206/240 268/207/240 269/208/240 271/209/240
f 266/210/241 270/211/241 269/208/241 268/207/241
f 267/212/242 271/209/242 269/208/242 270/211/242
f 272/213/243 275/214/243 276/215/243 278/216/243
f 273/217/244 277/218/244 276/215/244 275/214/244
f 274/219/245 278/216/245 276/215/245 277/218/245
f 279/192/246 282/195/246 283/220/246 285/193/246
f 280/221/247 284/197/247 283/220/247 282/195/247
f 281/222/248 285/193/248 283/220/248 284/197/248
f 286/223/249 289/200/249 290/201/249 292/224/249
f 287/225/250 291/226/250 290/201/250 289/200/250
f 288/227/251 292/224/251 290/201/251 291/226/251
f 293/210/252 296/228/252 297/208/252 299/229/252
f 294/206/253 298/209/253 297/208/253 296/228/253
f 295/230/254 299/229/254 297/208/254 298/209/254
f 300/231/255 303/216/255 304/232/255 306/214/255
f 301/219/256 305/233/256 304/232/256 303/216/256
f 302/217/257 306/214/257 304/232/257 305/233/257
f 251/192/258 272/213/258 278/216/258 254/193/258
f 254/193/259 278/216/259 274/219/259 252/196/259
f 267/212/260 274/219/260 277/218/260 271/209/260
f 271/209/261 277/218/261 273/217/261 265/206/261
f 260/205/262 267/212/262 270/211/262 264/202/262
f 264/202/263 270/211/263 266/210/263 258/199/263
f 252/196/264 260/205/264 263/204/264 256/197/264
f 256/197/265 263/204/265 259/203/265 253/198/265
f 281/222/266 301/219/266 303/216/266 285/193/266
f 285/193/267 303/216/267 300/231/267 279/192/267
f 280/221/268 286/223/268 292/224/268 284/197/268
f 284/197/269 292/224/269 288/227/269 281/222/269
f 287/225/270 293/210/270 299/229/270 291/226/270
f 291/226/271 299/229/271 295/230/271 288/227/271
f 294/206/272 302/217/272 305/233/272 298/209/272
f 298/209/273 305/233/273 301/219/273 295/230/273
f 253/198/274 280/221/274 282/195/274 257/195/274
f 257/195/275 282/195/275 279/192/275 251/192/275
f 258/199/276 287/225/276 289/200/276 261/200/276
f 261/200/277 289/200/277 286/223/277 259/203/277
f 265/206/278 294/206/278 296/228/278 268/207/278
f 268/207/279 296/228/279 293/210/279 266/210/279
f 272/213/280 300/231/280 306/214/280 275/214/280
f 275/214/281 306/214/281 302/217/281 273/217/281
f 272/213/282 251/192/282 279/192/282 300/231/282
f 274/219/51 267/212/51 260/205/51 252/196/51
f 253/198/283 259/203/283 286/223/283 280/221/283
f 258/199/284 266/210/284 293/210/284 287/225/284
f 265/206/285 273/217/285 302/217/285 294/206/285
f 281/222/46 288/227/46 295/230/46 301/219/46
f 307/234/286 310/235/286 311/236/286 313/237/286
f 308/238/287 312/239/287 311/236/287 310/235/287
f 309/240/288 313/237/288 311/236/288 312/239/288
f 314/241/289 317/242/289 318/243/289 320/244/289
f 315/245/290 319/246/290 318/243/290 317/242/290
f 316/247/291 320/244/291 318/243/291 319/246/291
f 321/248/292 324/249/292 325/250/292 327/251/292
f 322/252/293 326/253/293 325/250/293 324/249/293
f 323/254/294 327/251/294 325/250/294 326/253/294
f 328/255/295 331/256/295 332/257/295 334/258/295
f 329/259/296 333/260/296 332/257/296 331/256/296
f 330/261/297 334/258/297 332/257/297 333/260/297
f 335/262/298 338/237/298 339/263/298 341/235/298
f 336/240/299 340/239/299 339/263/299 338/237/299
f 337/264/300 341/235/300 339/263/300 340/239/300
f 342/245/301 345/265/301 346/266/301 348/246/301
f 343/267/302 347/244/302 346/266/302 345/265/302
f 344/247/303 348/246/303 346/266/303 347/244/303
f 349/268/304 352/249/304 353/269/304 355/270/304
f 350/271/305 354/251/305 353/269/305 352/249/305
f 351/272/306 355/270/306 353/269/306 354/251/306
f 356/273/307 359/274/307 360/275/307 362/256/307
f 357/261/308 361/260/308 360/275/308 359/274/308
f 358/276/309 362/256/309 360/275/309 361/260/309
f 307/234/310 328/255/310 334/258/310 310/235/310
f 310/235/311 334/258/311 330/261/311 308/238/311
f 323/254/312 330/261/312 333/260/312 327/251/312
f 327/251/313 333/260/313 329/259/313 321/248/313
f 316/247/314 323/254/314 326/253/314 320/244/314
f 320/244/315 326/253/315 322/252/315 314/241/315
f 308/238/316 316/247/316 319/246/316 312/239/316
f 312/239/317 319/246/317 315/245/317 309/240/317
f 337/264/318 357/261/318 359/274/318 341/235/318
f 341/235/319 359/274/319 356/273/319 335/262/319
f 336/240/320 342/245/320 348/246/320 340/239/320
f 340/239/321 348/246/321 344/247/321 337/264/321
f 343/267/322 349/268/322 355/270/322 347/244/322
f 347/244/323 355/270/323 351/272/323 344/247/323
f 350/271/324 358/276/324 361/260/324 354/251/324
f 354/251/325 361/260/325 357/261/325 351/272/325
f 309/240/326 336/240/326 338/237/326 313/237/326
f 313/237/327 338/237/327 335/262/327 307/234/327
f 314/241/328 343/267/328 345/265/328 317/242/328
f 317/242/329 345/265/329 342/245/329 315/245/329
f 321/248/330 350/271/330 352/249/330 324/249/330
f 324/249/331 352/249/331 349/268/331 322/252/331
f 328/255/332 356/273/332 362/256/332 331/256/332
f 331/256/333 362/256/333 358/276/333 329/259/333
f 328/255/334 307/234/334 335/262/334 356/273/334
f 330/261/51 323/254/51 316/247/51 308/238/51
f 309/240/47 315/245/47 342/245/47 336/240/47
f 314/241/335 322/252/335 349/268/335 343/267/335
f 321/248/336 329/259/336 358/276/336 350/271/336
f 337/264/46 344/247/46 351/272/46 357/261/46
